<svg id="Layer_1" data-name="Layer 1" xmlns="http://www.w3.org/2000/svg" xmlns:xlink="http://www.w3.org/1999/xlink" viewBox="0 0 2880 1800"><defs><style>.cls-1,.cls-10,.cls-11,.cls-12,.cls-13,.cls-14,.cls-15,.cls-16,.cls-17,.cls-18,.cls-19,.cls-20,.cls-21,.cls-22,.cls-23,.cls-24,.cls-25,.cls-26,.cls-27,.cls-28,.cls-29,.cls-30,.cls-4,.cls-5,.cls-6,.cls-7,.cls-8,.cls-9{fill:none;}.cls-2{opacity:0.4;}.cls-3{clip-path:url(#clip-path);}.cls-10,.cls-11,.cls-12,.cls-13,.cls-14,.cls-15,.cls-16,.cls-17,.cls-18,.cls-19,.cls-20,.cls-21,.cls-22,.cls-23,.cls-24,.cls-25,.cls-26,.cls-27,.cls-28,.cls-29,.cls-30,.cls-4,.cls-5,.cls-6,.cls-7,.cls-8,.cls-9{stroke:#939393;stroke-miterlimit:10;}.cls-5{stroke-width:1.5px;}.cls-6{stroke-width:1.48px;}.cls-7{stroke-width:1.46px;}.cls-8{stroke-width:1.44px;}.cls-9{stroke-width:1.42px;}.cls-10{stroke-width:1.4px;}.cls-11{stroke-width:1.38px;}.cls-12{stroke-width:1.37px;}.cls-13{stroke-width:1.35px;}.cls-14{stroke-width:1.33px;}.cls-15{stroke-width:1.31px;}.cls-16{stroke-width:1.29px;}.cls-17{stroke-width:1.27px;}.cls-18{stroke-width:1.25px;}.cls-19{stroke-width:1.23px;}.cls-20{stroke-width:1.21px;}.cls-21{stroke-width:1.19px;}.cls-22{stroke-width:1.17px;}.cls-23{stroke-width:1.15px;}.cls-24{stroke-width:1.13px;}.cls-25{stroke-width:1.12px;}.cls-26{stroke-width:1.1px;}.cls-27{stroke-width:1.08px;}.cls-28{stroke-width:1.06px;}.cls-29{stroke-width:1.04px;}.cls-30{stroke-width:1.02px;}</style><clipPath id="clip-path"><rect class="cls-1" x="-2" y="-246" width="2880" height="1800"/></clipPath></defs><g class="cls-2"><g class="cls-3"><path class="cls-4" d="M2967.5,396.5c-9.24,71.45,45.56,280.86-180.58,399.72C2692.2,846,2617.35,901.33,2484.5,910.5c-334.08,23.06-429.21-179.88-662-168-256.81,13.11-252.92,191.71-593.78,279.46-358.23,92.22-695.31,47.66-1072.44-2.2-145.95-19.3-248,571.13-326.43,554.74"/><path class="cls-4" d="M2980.6,406.07c-12.7,65.34,33.8,263-194.51,373-85.44,41.18-156.58,84.84-260.77,104-14.33,2.64-29,5.22-44.3,6.82-233.32,24.4-335.55-64.22-469.48-108.85-50.73-16.9-104.76-28.32-169.42-24.24-122.5,7.35-187.84,50.86-259.88,101C1502.38,913.46,1417.57,977.55,1243,1015c-65.53,14-130.33,22.45-195.45,30.94-182,23.77-353.12,35.42-539.69,20.11-108.54-9.14-218.07-26.76-333.6-45.4C97.63,1008.28,30.91,1152.73-28.5,1293.16c-55.31,130.73-101.82,258.45-141.67,250.69"/><path class="cls-4" d="M2993.69,415.64c-16.14,59.24,21.9,245-208.42,346.27-87.46,38.46-161.67,77.69-264.12,98.89-14.4,3-28.76,6.4-43.62,8.52-224.44,32-312.33-43.23-445.93-79.59-50.28-13.69-104.67-23.28-169.86-18.59-122,8.78-189.59,51.14-263.61,97.45-83.82,52.45-169.49,110.14-340.84,139.34-65.44,11.15-130,15.68-195.52,24.15-182.46,23.61-345.87,52.85-534.4,40.09-108.91-7.81-217.83-28.5-335.11-50.73C114.54,1006.79,44.91,1142.21-19.09,1275c-59.52,123.52-109.23,245.77-151.09,238.15"/><path class="cls-4" d="M3006.79,425.21c-19.59,53.13,9.84,226.9-222.35,319.55-89.53,35.73-166.76,70.6-267.46,93.76-14.47,3.33-28.51,7.57-42.93,10.21-215.41,39.45-289-22.27-422.39-50.34-49.78-10.47-104.58-18.34-170.3-12.93-121.43,10-191.47,51.36-267.34,93.88-87.91,49.26-174.51,100.42-342.44,121.58-65.46,8.24-129.58,8.89-195.59,17.34-182.94,23.45-338.65,70.82-529.12,60.07-109.29-6.16-217.59-30.22-336.63-56-78.79-17-151.3,109.38-219.92,234.65C-73.39,1373.21-126.32,1490-170.19,1482.54"/><path class="cls-4" d="M3019.88,434.79c-23,47-2.33,208.69-236.26,292.82-91.65,33-171.86,63.58-270.81,88.63-14.55,3.68-28.24,8.72-42.24,11.9-206.22,46.72-265.49-1.34-398.84-21.08-49.24-7.29-104.51-13.42-170.76-7.28-120.89,11.22-193.44,51.52-271.06,90.31-92.11,46-179.73,90.51-344.05,103.81-65.56,5.31-129.2,2.12-195.66,10.54-183.42,23.3-331.39,88.4-523.83,80.06-109.66-4.75-217.36-32-338.14-61.38-79.87-19.32-155.23,98-228.5,215.69-67.86,109-124,220.41-169.94,213.07"/><path class="cls-4" d="M3033,444.36c-26.49,40.92-14.63,190.36-250.19,266.09-93.81,30.16-177,56.63-274.16,83.5-14.62,4-27.94,9.88-41.55,13.6-196.85,53.76-241.85,19.53-375.29,8.18-48.65-4.14-104.42-8.51-171.2-1.63-120.35,12.41-195.51,51.59-274.8,86.74-96.41,42.74-185.12,80.38-345.64,86-65.76,2.32-128.83-4.66-195.74,3.73-183.89,23.14-324.13,106-518.55,100.05-110-3.35-217.11-33.69-339.64-66.71C165.27,1002.31,87.1,1110.47,9.14,1220.7c-72,101.74-131.46,207.72-179.36,200.53"/><path class="cls-4" d="M3046.08,453.93c-29.94,34.81-27,171.91-264.11,239.37-96,27.32-182.07,49.73-277.51,78.37-14.69,4.41-27.64,11-40.86,15.28-187.36,60.54-218.11,40.31-351.75,37.44-48-1-104.34-3.59-171.64,4C1820.39,842,1742.54,880,1661.68,911.59c-100.82,39.37-190.68,70-347.25,68.28-66-.72-128.45-11.43-195.81-3.07-184.37,23-316.87,123.51-513.26,120-110.38-1.95-216.87-35.41-341.15-72-82-24-162.95,75-245.66,177.78-76,94.45-138.87,195-188.78,188"/><path class="cls-4" d="M3059.17,463.5c-33.38,28.71-39.5,153.32-278,212.65-98.26,24.43-187.16,42.9-280.85,73.24-14.77,4.78-27.32,12.13-40.17,17-177.76,67-194.26,61-328.2,66.7-47.36,2-104.26,1.31-172.09,9.69-119.28,14.73-199.9,51.48-282.26,79.59-105.3,35.93-196.39,59.32-348.85,50.52-66.4-3.84-128.08-18.21-195.89-9.88-184.85,22.83-309.6,141-508,140-110.74-.57-216.63-37.15-342.66-77.36C199.1,999.33,115.47,1089.2,28,1184.46c-80.06,87.15-146.28,182.37-198.21,175.46"/><path class="cls-4" d="M3072.27,473.07c-36.83,22.6-52.07,134.6-291.95,185.92-100.53,21.51-192.25,36.13-284.2,68.12-14.85,5.16-27,13.23-39.48,18.66-168.07,73.09-170.34,81.47-304.66,96-46.67,5-104.18,6.2-172.53,15.34-118.75,15.87-202.17,51.3-286,76-109.85,32.39-202.19,48.38-350.45,32.76-66.83-7-127.7-25-196-16.68-185.32,22.67-302.33,158.56-502.69,160-111.09.8-216.39-38.88-344.16-82.7C216,997.84,129.74,1078.56,37.37,1166.35c-84,79.84-153.7,169.68-207.63,162.92"/><path class="cls-4" d="M3085.37,482.64c-40.29,16.5-64.69,115.74-305.88,159.2-102.82,18.53-197.33,29.41-287.54,63-14.93,5.56-26.65,14.32-38.8,20.36C2294.81,804,2306.79,827,2172.05,850.4c-46,8-104.1,11.08-173,21-118.21,17-204.49,51-289.73,72.44-114.43,28.75-208.07,37.12-352,15-67.29-10.34-127.32-31.77-196-23.49-185.8,22.52-295.06,176.06-497.4,180-111.45,2.17-216.15-40.6-345.68-88-85.25-31-174.1,40.62-271.39,120.92-87.91,72.55-161.11,157-217,150.38"/><path class="cls-4" d="M3098.46,492.21c-43.73,10.4-77.34,96.75-319.79,132.48-105.13,15.49-202.4,22.74-290.9,57.85-15,6-26.3,15.37-38.1,22.05-148.63,84.12-122.37,122-257.56,154.47-45.27,10.86-104,16-173.42,26.65-117.68,18.11-206.84,50.69-293.46,68.87-119.06,25-214,25.56-353.65-2.77-67.78-13.74-126.95-38.54-196.12-30.29-186.28,22.36-287.79,193.54-492.11,200-111.81,3.52-215.91-42.34-347.19-93.35-86.33-33.29-177.69,29.17-280,102-91.75,65.29-168.52,144.32-226.48,137.84"/><path class="cls-4" d="M3111.56,501.78c-47.18,4.29-90,77.63-333.72,105.75-107.45,12.41-207.45,16.13-294.24,52.73-15.07,6.35-25.95,16.4-37.41,23.74-139,89-98.4,142.07-234,183.73-44.56,13.69-103.93,20.84-173.87,32.3-117.14,19.2-209.19,50.26-297.18,65.3C1617.4,986.48,1521.21,979,1385.86,944.8c-68.28-17.28-126.57-45.32-196.19-37.1-186.75,22.21-280.52,211-486.82,220-112.17,4.87-215.67-44.07-348.7-98.68-87.41-35.62-181.23,17.77-288.55,83-95.54,58.07-175.93,131.64-235.9,125.31"/><path class="cls-4" d="M3124.65,511.36c-50.62-1.82-102.74,58.37-347.63,79-109.79,9.26-212.49,9.56-297.59,47.59-15.14,6.77-25.61,17.41-36.73,25.44-129.43,93.51-74.48,162-210.46,213-43.89,16.47-103.86,25.69-174.32,38-116.61,20.29-211.55,49.77-300.91,61.73-128.38,17.19-225.81,1.58-356.86-38.3-68.78-20.92-126.2-52.1-196.27-43.9-187.23,22-273.25,228.47-481.54,240-112.52,6.2-215.43-45.81-350.2-104-88.49-38-184.72,6.43-297.13,64.06-99.28,50.89-183.34,119-245.32,112.76"/><path class="cls-4" d="M3137.75,520.93c-54.08-7.93-115.46,39-361.56,52.3-112.12,6.06-217.5,3-300.93,42.46-15.21,7.19-25.28,18.38-36,27.13-120.07,97.63-50.63,181.7-186.92,242.24-43.22,19.21-103.78,30.55-174.76,43.61-116.09,21.36-213.91,49.21-304.65,58.16-133,13.13-231.63-10.8-358.46-56.06-69.23-24.71-125.82-58.88-196.34-50.71C1030.38,902,952.11,1126,741.84,1140c-112.89,7.54-215.19-47.53-351.71-109.33-89.56-40.29-188.18-4.86-305.71,45.1-103,43.78-190.75,106.28-254.75,100.23"/><path class="cls-4" d="M3150.85,530.5c-57.53-14-128.17,19.51-375.48,25.57-114.45,2.81-222.51-3.44-304.28,37.34-15.27,7.61-25,19.32-35.35,28.82-110.93,101.4-26.88,201.32-163.37,271.5-42.6,21.9-103.71,35.4-175.21,49.26-115.56,22.41-216.27,48.59-308.38,54.59-137.68,9-237.36-23.41-360.06-73.83-69.65-28.61-125.45-65.65-196.41-57.5-188.19,21.73-258.72,263.32-471,279.92-113.25,8.86-215-49.26-353.22-114.66-90.64-42.62-191.61-16.07-314.29,26.14-106.7,36.72-198.16,93.6-264.17,87.69"/><path class="cls-4" d="M3163.94,540.07c-61-20.13-140.85-.08-389.4-1.15-116.77-.5-227.48-9.88-307.62,32.2-15.33,8-24.68,20.25-34.67,30.52-102,104.89-3.23,220.84-139.82,300.76-42,24.57-103.63,40.23-175.65,54.91-115,23.45-218.61,47.92-312.11,51-142.31,4.72-243-36.22-361.67-91.59-70-32.65-125.07-72.43-196.48-64.31C1057.85,874,995.07,1133.15,780.84,1152.34c-113.61,10.17-214.71-51-354.74-120-91.71-44.95-195-27.22-322.86,7.19-110.4,29.71-205.58,80.92-273.59,75.15"/><path class="cls-4" d="M3177,549.64c-64.42-26.24-153.53-19.78-403.32-27.87-119.09-3.86-232.44-16.29-311,27.07-15.37,8.49-24.41,21.14-34,32.21-93.45,108.16,20.3,240.27-116.28,330-41.43,27.23-103.55,45.07-176.09,60.57-114.52,24.49-220.93,47.2-315.84,47.45-146.92.38-248.47-49.19-363.27-109.36-70.23-36.8-124.69-79.21-196.56-71.11-189.14,21.42-244.19,298.12-460.4,319.89-114,11.48-214.47-52.72-356.24-125.31-92.79-47.28-198.48-38.3-331.44-11.77-114.1,22.77-213,68.24-283,62.62"/><path class="cls-4" d="M3190.13,559.21c-67.86-32.34-166.16-39.56-417.24-54.6-121.39-7.27-237.36-22.65-314.32,21.95-15.42,8.94-24.19,22-33.28,33.89-85.18,111.29,43.71,259.66-92.73,359.28-40.9,29.86-103.49,49.88-176.54,66.23-114,25.49-223.24,46.43-319.58,43.87-151.49-4-253.79-62.29-364.87-127.12-70.37-41.07-124.31-86-196.63-77.92-189.62,21.27-236.93,315.5-455.11,339.88C705.5,1177.45,605.6,1110.22,462.08,1034c-93.87-49.61-201.94-49.33-340-30.72-117.83,15.87-220.4,55.55-292.44,50.07"/><path class="cls-4" d="M3203.23,568.78c-71.32-38.45-178.76-59.42-431.16-81.32-123.67-10.73-242.26-29-317.67,16.81-15.47,9.4-24,22.88-32.6,35.59-77.22,114.34,67,279-69.18,388.54-40.4,32.49-103.42,54.69-177,71.88-113.49,26.5-225.5,45.64-323.3,40.3-156-8.52-258.95-75.48-366.47-144.89-70.4-45.44-123.94-92.76-196.71-84.72-190.1,21.11-229.67,332.86-449.82,359.87-114.7,14.07-214-56.19-359.26-136-94.95-51.94-205.43-60.3-348.6-49.68-121.58,9-227.81,42.88-301.86,37.54"/><path class="cls-4" d="M3216.33,578.36c-74.77-44.56-191.32-79.37-445.09-108-125.93-14.23-247.13-35.32-321,11.68-15.5,9.86-23.87,23.72-31.91,37.28-69.59,117.38,90.21,298.31-45.64,417.8-39.93,35.12-103.35,59.5-177.43,77.53-113,27.5-227.76,44.82-327,36.73-160.55-13.08-263.94-88.74-368.08-162.65-70.29-49.9-123.56-99.54-196.78-91.53-190.57,21-222.42,350.21-444.53,379.86-115.06,15.35-213.75-57.92-360.77-141.3-96-54.27-208.95-71.23-357.18-68.63-125.35,2.19-235.22,30.19-311.29,25"/><path class="cls-4" d="M3229.42,587.93c-78.21-50.66-203.82-99.38-459-134.77-128.17-17.78-252-41.62-324.36,6.55-15.53,10.33-23.78,24.57-31.22,39-62.27,120.49,113.3,317.62-22.09,447.05-39.5,37.76-103.29,64.3-177.88,83.19-112.48,28.48-230,44-330.76,33.16-165-17.7-268.76-102-369.68-180.41-70.07-54.43-123.19-106.32-196.86-98.34-191,20.8-215.16,367.55-439.25,399.84-115.43,16.64-213.51-59.65-362.27-146.62C419,980,303.54,954.43,150.29,949c-129.16-4.61-242.63,17.51-320.71,12.46"/><path class="cls-4" d="M3242.52,597.5c-81.66-56.77-216.28-119.45-472.93-161.5-130.38-21.36-256.79-47.89-327.7,1.43-15.56,10.81-23.73,25.41-30.54,40.66-55.21,123.73,136.31,336.93,1.46,476.31-39.08,40.39-103.23,69.08-178.32,88.84-112,29.46-232.18,43.09-334.5,29.59-169.45-22.37-273.4-115.33-371.28-198.18-69.7-59-122.81-113.1-196.93-105.14-191.53,20.64-207.92,384.87-434,419.83C782,1207.25,684.55,1128,534,1037.39c-98.17-58.94-216.09-93-374.33-106.55-133-11.38-250,4.84-330.13-.07"/><path class="cls-4" d="M3255.62,607.07c-85.12-62.87-228.69-139.57-486.85-188.22-132.58-25-261.58-54.15-331.06-3.71-15.56,11.3-23.71,26.28-29.84,42.36-48.42,127.14,159.23,356.26,25,505.57-38.7,43-103.18,73.86-178.77,94.49-111.48,30.42-234.36,42.2-338.23,26C1742,1056.49,1638,955,1543,867.64c-69.2-63.63-122.44-119.88-197-111.95-192,20.49-200.68,402.18-428.67,439.82-116.17,19.17-213-63.11-365.3-157.28C452.77,977,332.3,934.37,169.11,912.73c-136.88-18.16-257.46-7.85-339.56-12.62"/><path class="cls-4" d="M3268.71,616.64c-88.56-69-241-159.73-500.77-214.94-134.74-28.64-266.33-60.4-334.4-8.84-15.57,11.79-23.74,27.15-29.15,44.05-41.85,130.77,182.08,375.6,48.55,534.82-38.32,45.7-103.13,78.64-179.21,100.15-111,31.38-236.5,41.29-342,22.45-178.19-31.85-282.21-141.84-374.49-233.71C1488.71,792.34,1435.22,734,1360.2,741.87c-192.48,20.33-193.44,419.48-423.38,459.8C820.27,1222.11,724,1136.83,570,1039.07c-100.33-63.6-223.39-114.7-391.49-144.46-140.78-24.91-264.87-20.53-349-25.15"/><path class="cls-4" d="M3281.81,626.21c-92-75.08-253.32-179.94-514.69-241.67-136.88-32.32-271.06-66.62-337.75-14-15.56,12.29-23.8,28-28.47,45.74-35.45,134.63,204.88,395,72.1,564.08-38,48.36-103.08,83.4-179.65,105.8-110.51,32.33-238.62,40.38-345.69,18.88-182.51-36.65-286.39-155-376.09-251.47-67.83-72.94-121.68-133.43-197.16-125.56-193,20.18-186.27,436.43-418.1,479.79-116.95,21.52-212.55-66.57-368.31-167.93C486.59,974,360.92,914.36,187.93,876.5c-144.71-31.68-272.28-33.21-358.4-37.69"/><path class="cls-4" d="M3294.9,635.78c-95.45-81.19-265.56-200.18-528.6-268.39-139-36-275.75-72.85-341.1-19.1-15.55,12.8-23.89,28.95-27.78,47.44C2368.23,534.47,2625,810.1,2493.07,989.07c-37.64,51-103.07,88-180.11,111.45-110.07,33.12-240.71,39.45-349.42,15.3-186.78-41.48-290.42-168.12-377.68-269.23-67-77.59-121.31-140.21-197.23-132.36-193.44,20-179,453.87-412.82,499.78C858.49,1236.86,763.5,1145.7,606,1040.75,503.5,972.49,375.09,904.69,197.34,858.38,48.6,820.23-82.35,812.49-170.49,808.15"/><path class="cls-4" d="M3308,645.35c-98.91-87.29-277.74-220.44-542.53-295.11C2624.41,310.46,2485.06,271.16,2421,326c-131,112.19,240.85,457.53,92.1,671.72-90,129.62-345.21,174.57-533.7,128.84-339.44-82.34-401.93-444-576.59-426.16-193.92,19.87-171.77,471.31-407.53,519.76-194.22,39.92-325-242.64-788.56-379.9C54.1,795.07-80.35,781.69-170.5,777.5"/><path class="cls-5" d="M3543.21,998.09c-263.42-208.29-492.38-258.55-659.3-262.58-306.07-7.39-450.33,139.55-701.8,84.83-292-63.56-347.76-316.22-467.46-295.86-201,34.2-49.83,747.77-323.22,828.25C1182.69,1414.18,842.74,1186,575.29,954,255.27,676.4,135,417.75-42.93,419.11-182.17,420.17-357.15,518-565.57,851.24"/><path class="cls-6" d="M3544.37,984.52C3367.25,854.7,3203.88,797.63,3064.5,768.27c-64-13.52-122.3-21.25-174.51-24.41-220.84-13.36-355.67,52.37-512.2,71.37-56.3,6.8-115.25,8-181.25-4.58-287.06-54.78-346.53-291.88-467.29-269.2-35,6.51-59.09,32.68-78.21,70.73-52.1,103.66-59.22,297-95.63,457.34-28.67,126.25-71.1,233.33-173.58,266.33-135.47,43.82-317-27.61-498.13-139.67C772.81,1127.57,668,1037.66,571.37,947.38,435.26,820.18,333.85,699.15,243.28,606.11,133.21,493,54.05,420.79-42.79,426.84c-62.26,3.88-131.36,27.23-208.53,79.08-93,62.48-200.56,164.19-316.86,333.91"/><path class="cls-7" d="M3545.54,971c-173.89-117-336.42-162.65-476-191-63.83-13.06-121.67-22.63-173.48-27.7-216.15-21.15-348.28,31.9-504,50.14-56.3,6.53-115.35,9.37-181.12-1.39-282-46.13-345.29-267.56-467.12-242.56-35.15,7.1-59.13,33.11-79.57,69.27-57,100.72-70.36,283.14-111.91,433.78-32.85,119.08-74.41,220.73-180.13,257.51-140.26,49.18-321.37-18.55-499.91-124.33-112.2-66.48-211.62-160-304.86-253.88C437.86,810.25,338.15,688,243,596.79,130,488.54,52.37,423.25-42.65,434.56c-61.4,7.31-129.07,33.61-205.79,84.1C-340.89,579.5-452.1,671.13-570.78,828.42"/><path class="cls-8" d="M3546.7,957.4C3376.05,853.16,3214.36,819,3074.61,791.58c-63.69-12.61-121-24-172.46-31-211.36-28.78-340.88,11.42-495.77,28.91-56.3,6.26-115.42,10.7-181,1.8-276.76-37.6-344-243-466.95-215.91-35.28,7.76-59.26,33.55-80.94,67.79-62,98-81.44,269-128.2,410.24-37,111.74-77.71,208.11-186.67,248.69-145.05,54.52-325.85-9.39-501.68-109-113.6-64.34-207.53-161.36-297.41-259-123.1-133.68-221-257.23-320.91-346.65C127,484,50.66,425.75-42.51,442.29c-60.57,10.75-126.78,40-203,89.11-91.9,59.21-206.76,140.74-327.83,285.6"/><path class="cls-9" d="M3547.87,943.83c-167.41-91.44-328.27-114.15-468.21-140.6-63.55-12.15-120.31-25.32-171.43-34.29-206.48-36.25-333.49-9.05-487.55,7.68-56.31,6-115.47,12-180.87,5C1968.37,752.39,1897.07,563,1773,592.34c-35.42,8.37-59.49,34-82.3,66.32-67.29,95.31-92.4,254.5-144.49,386.7-41.06,104.22-81,195.5-193.22,239.86-149.83,59.87-330.44-.11-503.45-93.65-115-62.2-203.44-162.65-289.94-264.06C443,790.78,347.08,665.76,242.31,578.17,124.08,479.34,48.92,428.29-42.37,450c-59.76,14.23-124.49,46.37-200.3,94.14C-334,601.71-452.52,673.16-576,805.59"/><path class="cls-10" d="M3549,930.27c-164.17-78.66-324.19-89.9-464.31-115.38-63.42-11.7-119.6-26.62-170.41-37.6-201.54-43.52-326.09-29.51-479.33-13.54-56.31,5.72-115.48,13.32-180.74,8.17-266-21-341.49-194.19-466.61-162.61-35.57,9-59.82,34.45-83.67,64.84-72.79,92.76-103.19,239.68-160.78,363.16-45,96.53-84.42,182.65-199.76,231-154.75,64.91-335.16,9.29-505.23-78.31-116.55-60-199.37-163.85-282.48-269.14-110.23-139.64-204-266.31-313.72-352-120.64-94.23-194.83-138-284.21-111.12-59,17.72-122.22,52.74-197.56,99.15-90.8,55.93-212.95,117.29-338.8,237.29"/><path class="cls-11" d="M3550.2,916.71c-160.94-65.87-320.12-65.66-460.43-90.17-63.27-11.24-118.85-27.88-169.38-40.89-196.54-50.61-318.69-50-471.12-34.77-56.31,5.44-115.46,14.58-180.61,11.36-260.5-12.91-340.22-169.81-466.43-136-35.71,9.58-60.25,34.88-85,63.38-78.53,90.24-113.74,224.49-177.06,339.61-48.77,88.66-87.75,170-206.31,222.2-159.56,70.24-340,18.82-507-63-118.13-57.84-195.32-165-275-274.22C447.91,771.85,356.46,643.35,241.66,559.55c-122.91-89.73-196.28-126-283.74-94.09C-100.28,486.72-162,524.58-236.9,569.63c-90.25,54.29-216,105.56-344.28,213.13"/><path class="cls-12" d="M3551.36,903.14c-157.7-53.07-316-41.4-456.53-64.95-63.14-10.78-118.11-29.09-168.36-44.18-191.51-57.5-311.3-70.45-462.9-56-56.31,5.17-115.43,15.82-180.48,14.54-254.9-5-339-145.43-466.27-109.32-35.85,10.18-60.76,35.28-86.4,61.91-84.5,87.74-124,209-193.35,316.06-52.25,80.66-91.06,157.4-212.85,213.39-164.37,75.56-344.93,28.46-508.79-47.63-119.77-55.62-191.31-166-267.55-279.31C450.26,762.56,361.29,632.06,241.34,550.24c-125.08-85.32-197.74-114-283.28-77.05C-99.36,498-159.58,538.68-234,582.38c-89.7,52.65-219.15,93.83-349.77,189"/><path class="cls-13" d="M3552.53,889.58c-154.46-40.28-312-17.16-452.64-39.73-63-10.33-117.35-30.27-167.34-47.48-186.46-64.2-303.9-90.92-454.68-77.23-56.31,4.9-115.37,17-180.36,17.73-249.22,2.69-337.72-121.08-466.09-82.67-36,10.77-61.37,35.64-87.77,60.43-90.72,85.2-133.77,193.12-209.64,292.52-55.37,72.55-94.38,144.78-219.39,204.56-169.17,80.9-350,38.24-510.57-32.29C682.58,1132.07,616.69,1018.47,544,901c-91.43-147.65-177.75-280.32-303-360.1-127.13-81-199.2-102-282.81-60-56.64,28.42-115.36,71.87-189.33,114.2-89.15,51-222.24,82.1-355.25,164.82"/><path class="cls-14" d="M3553.69,876c-151.22-27.49-307.88,7.09-448.75-14.52-62.87-9.87-116.58-31.4-166.31-50.78-181.42-70.68-296.48-111.08-446.47-98.45-56.3,4.74-115.28,18.2-180.22,20.92-243.48,10.19-336.47-96.73-465.92-56-36.15,11.37-62.06,36-89.14,59-97.16,82.57-143.08,177.06-225.93,269-58.07,64.44-97.69,132.16-225.93,195.73-174,86.24-355.13,48.16-512.35-16.95-123.24-51-183.46-167.83-252.63-289.48C454.7,744.29,371.21,609.27,240.69,531.61c-129.1-76.8-200.65-89.85-282.35-43-55.86,32.05-113.07,78.25-186.58,119.22-88.6,49.38-225.35,70.38-360.75,140.67"/><path class="cls-15" d="M3554.86,862.45c-148-14.7-303.81,31.34-444.86,10.71-62.73-9.43-115.83-32.49-165.29-54.08-176.4-77-289.08-131.54-438.25-119.68-56.3,4.48-115.19,19.32-180.1,24.1-237.68,17.51-335.21-72.38-465.75-29.37-36.28,12-62.81,36.21-90.5,57.49-103.82,79.79-137.45,179.57-242.21,245.43-48.53,66.82-101,119.54-232.48,186.9-178.77,91.59-360.37,58.21-514.13-1.61-125.06-48.65-179.64-168.64-245.16-294.56-79.35-152.49-159.84-290-295.76-365.48-131-72.69-202.08-77.69-281.89-25.93C-96.59,532.08-152.3,581-225.36,620.61c-88.05,47.73-228.44,58.64-366.23,116.5"/><path class="cls-16" d="M3556,848.89c-144.74-1.91-299.73,55.59-441,35.92-62.59-9-115.07-33.53-164.26-57.37-171.43-83.11-281.69-152-430-140.91-56.31,4.21-115.08,20.4-180,27.29-231.85,24.61-334-48-465.57-2.73-36.43,12.55-63.63,36.41-91.87,56C1672.67,844,1637,933.57,1524.84,989c-50.93,60.17-104.31,106.93-239,178.07-183.57,97-365.7,68.41-515.91,13.74C643,1134.6,594,1011.4,532.21,881.16,458.75,726.36,381.42,586.11,240,513c-132.81-68.68-203.48-65.5-281.42-8.9-54.25,39.41-108.49,91-181.1,129.26C-310,679.45-454,680.27-594.19,725.7"/><path class="cls-17" d="M3557.19,835.33c-141.51,10.88-295.7,80.12-437.08,61.14-62.47-8.39-114.35-34.52-163.24-60.67-166.52-89.06-274.29-172.46-421.81-162.14-56.32,3.94-115,21.43-179.85,30.48-226,31.5-332.72-23.71-465.41,23.92-36.57,13.13-64.49,36.55-93.23,54.54C1678.87,856.27,1641.25,936,1521.78,981c-53.33,53.52-107.62,94.32-245.56,169.25-188.36,102.3-371.1,78.74-517.69,29.07C629.64,1135.59,586.3,1009.14,528.3,874.54c-67.68-157-141.69-300.16-288.58-370.86-134.58-64.77-204.86-53.27-280.95,8.14-53.43,43.12-106.22,97.38-178.36,134.27-87,44.47-234.64,35.19-377.2,68.2"/><path class="cls-18" d="M3558.35,821.76c-138.27,23.68-291.62,104.38-433.18,86.36-62.34-7.93-113.64-35.47-162.22-64-161.69-94.84-266.9-192.92-413.6-183.36-56.31,3.67-114.85,22.41-179.72,33.66-220.17,38.19-331.47.62-465.23,50.57-36.73,13.72-65.39,36.64-94.6,53.08-124.87,70.24-164.26,140.24-291.08,174.79-55.73,46.88-110.77,82-252.1,160.43-192.94,108-376.58,89.23-519.47,44.41-130.88-41-168.66-170.8-222.77-309.81-62-159.26-132.53-305.37-285-373.55-136.31-61-206.2-41-280.48,25.17C-93.67,566.4-145,623.3-216.71,658.84c-86.39,42.82-237.73,23.46-382.68,44"/><path class="cls-19" d="M3559.52,808.2c-135,36.47-287.54,128.62-429.3,111.58C3068,912.3,3017.27,883.4,2969,852.51c-157-100.5-259.5-213.4-405.38-204.59-56.32,3.4-114.74,23.33-179.59,36.85C2169.7,729.45,2053.82,709.7,1919,762c-36.88,14.3-66.31,36.66-96,51.6-132.15,66.55-173.2,127.13-307.36,151.25-58.14,40.23-114.08,69.38-258.65,151.6-197.73,113.39-382.11,99.86-521.25,59.75-132.92-38.31-165.19-171.45-215.31-314.89C464.05,699.85,397.13,550.6,239.07,485.06c-138-57.23-207.52-28.75-280,42.21-51.7,50.6-101.64,110.13-172.87,144.31-85.85,41.19-240.83,11.73-388.17,19.88"/><path class="cls-20" d="M3560.68,794.64c-131.79,49.25-283.46,152.86-425.4,136.79-62.06-7-112.31-37.24-160.17-70.56C2822.8,754.83,2723,627,2578,635.05c-56.32,3.13-114.65,24.2-179.47,40-208.57,51-329,49.24-464.89,103.86-37,14.88-67.24,36.64-97.33,50.13-139.52,62.56-182.14,114-323.65,127.71-60.54,33.58-117.39,56.77-265.19,142.77-202.52,118.74-387.7,110.63-523,75.1-135-35.45-161.81-172.09-207.84-320-50.93-163.6-114.12-316.13-277.8-378.92C99.05,422.15,29.94,459.29-40.81,535c-50.8,54.36-99.35,116.52-170.13,149.33-85.29,39.55-243.93,0-393.65-4.27"/><path class="cls-21" d="M3561.85,781.08c-128.56,62-279.36,176.82-421.52,162-61.91-6.69-111.69-38.06-159.14-73.85-147.78-111.47-244.71-254.36-388.94-247.05-56.33,2.85-114.57,25-179.34,43.22-202.85,57.08-327.77,73.55-464.72,130.51-37.17,15.47-68.17,36.56-98.7,48.66-146.93,58.26-191.08,100.92-339.94,104.17-62.94,26.93-120.69,44.16-271.73,134C1030.51,1206.77,844.5,1204.23,713,1173.12c-137.12-32.45-158.52-172.72-200.38-325.07C467.09,682.29,407.75,526.37,238.42,466.43c-141.37-50-210.06-4.15-279.09,76.29C-90.55,600.85-137.74,665.61-208,697.07c-84.75,37.91-247-11.72-399.15-28.44"/><path class="cls-22" d="M3563,767.51c-125.32,74.84-275.28,201.08-417.62,187.23-61.77-6.24-111.12-38.86-158.12-77.16C2843.9,760.76,2750,602.75,2606.54,609.31c-56.32,2.58-114.51,25.74-179.21,46.41-197.21,63-326.53,97.84-464.54,157.16-37.33,16-69.1,36.42-100.07,47.19-154.37,53.65-201.13,60.73-356.23,80.62-67.86,8.7-124,31.54-278.27,125.12-212.1,129.44-399,132.6-526.59,105.77C562.35,1142.3,546.3,998.24,508.71,841.43,468.46,673.5,413.09,514.08,238.1,457.12c-143-46.55-211.28,8.15-278.63,93.33-48.94,61.89-94.78,129.26-164.64,159.36-84.19,36.27-250.12-23.45-404.63-52.59"/><path class="cls-23" d="M3564.18,754C3442.09,841.58,3293,979.27,3150.44,966.39c-61.63-5.78-110.59-39.62-157.09-80.45-139.09-122.11-229.92-295.32-372.51-289.5-56.33,2.3-114.49,26.41-179.08,49.6-191.66,68.78-325.31,122.13-464.38,183.8-37.47,16.62-70,36.25-101.43,45.72-161.79,48.74-208.19,49.57-372.51,57.08-69,3.15-127.31,18.93-284.82,116.29C1001.73,1183.72,814,1192.73,690.26,1170,548.8,1144.11,538,996.07,504.8,834.81c-35-170.11-86.37-333.13-267-387C93.05,404.66,25.3,468.26-40.39,558.17c-48,65.67-92.49,135.65-161.89,164.38-83.65,34.64-253.22-35.17-410.12-76.74"/><path class="cls-24" d="M3565.34,740.39C3446.5,840.81,3298.21,990,3155.5,978.05c-61.5-5.34-110.12-40.37-156.07-83.75-134.92-127.36-222.54-316.08-364.29-310.73-56.34,1.91-114.52,27-179,52.78C2270,710.77,2132.1,782.78,1992,846.81c-37.63,17.19-70.9,36-102.8,44.24-169.18,43.54-215.7,39-388.8,33.53-70.46-2.23-130.61,6.33-291.37,107.47-221.67,140.14-410.28,155.14-530.13,136.46-143.65-22.39-149.24-174.63-178-340.32C471,655.88,423.77,489.17,237.45,438.5,91,398.69,23.8,471.25-40.24,565.9c-47,69.44-90.22,142-159.16,169.4-83.09,33-256.32-46.91-415.6-100.91"/><path class="cls-25" d="M3566.51,726.82c-115.61,113.21-263.05,273.82-406,262.88-61.36-4.88-109.69-41.09-155.06-87.05-130.87-132.57-215.13-336.54-356.07-331.95-56.33,1.64-114.58,27.59-178.82,56-180.91,79.92-322.87,170.71-464,237.1-37.77,17.77-71.76,35.79-104.16,42.77-176.5,38.06-223.72,28.92-405.09,10-72.16-7.53-133.91-6.29-297.91,98.64C973,1160.67,783.48,1181.78,667.5,1167,521.66,1148.35,521.19,991.67,497,821.57c-24.85-174.55-67.85-345-259.83-392.38C89,392.65,22.33,474.24-40.1,573.62-86.09,646.84-128,722-196.52,748-279.06,779.4-455.93,689.41-617.6,623"/><path class="cls-26" d="M3567.67,713.26c-112.37,126-259,298.06-402.06,288.1-61.22-4.43-109.3-41.8-154-90.35-126.94-137.79-207.74-357-347.85-353.18C2607.39,559.2,2549,585.91,2485,617c-175.73,85.32-321.64,195-463.86,263.75-37.93,18.34-72.61,35.51-105.53,41.3-183.74,32.32-232.24,19.08-421.38-13.56-74.12-12.79-137.22-18.9-304.45,89.82-231.25,150.84-421.54,178.19-533.69,167.13-148-14.59-143.47-176-163.07-350.49C473.19,638.13,434.43,463.83,236.8,419.88,87,386.55,20.88,477.21-40,581.35c-45,77-85.64,154.77-153.67,179.43-82,29.72-262.51-70.36-426.57-149.21"/><path class="cls-27" d="M3568.84,699.7C3459.7,838.49,3313.94,1022,3170.67,1013c-61.09-4-109-42.49-153-93.64C2894.53,776.37,2817.32,541.89,2678,545c-56.34,1.1-114.89,28.53-178.58,62.34-170.71,90.64-320.56,219-463.68,290.4-38.12,18.85-73.42,35.21-106.9,39.83-190.87,26.36-241.21,9.36-437.66-37.1-76.33-18-140.53-31.51-311,81-236,156.19-427.11,189.91-535.47,182.48C494.59,1153.59,504,987.17,489.13,808.32,474.21,629.2,439.73,451,236.48,410.57c-151.6-30.16-217,69.61-276.3,178.5-43.94,80.75-83.35,161.16-150.93,184.46-81.44,28.08-265.61-82.09-432-173.38"/><path class="cls-28" d="M3570,686.13c-105.89,151.59-250.82,346.56-394.28,338.54-60.95-3.52-108.67-43.19-152-96.94-119.44-148.23-192.94-398-331.41-395.64-56.35.83-115.14,28.92-178.45,65.53C2348,693.51,2194.56,841,2050.36,914.67c-38.27,19.43-74.19,34.88-108.26,38.35-197.89,20.19-250.59-.36-453.95-60.64-78.74-23.34-143.83-44.13-317.54,72.16C929.78,1126.09,738,1166.29,633.36,1162.36c-152.23-5.72-138-177.49-148.14-360.66C475.17,620.22,445,438.09,236.15,401.26,82.78,374.21,18,483.14-39.68,596.8c-42.9,84.5-81.07,167.53-148.18,189.47-80.9,26.44-268.71-93.82-437.54-197.53"/><path class="cls-29" d="M3571.17,672.57c-102.66,164.38-246.75,370.81-390.39,363.75-60.81-3.06-108.42-43.88-151-100.24C2914,782.6,2844.27,517.67,2706.62,519.22c-56.34.56-115.45,29.28-178.32,68.72C2367.14,689,2210.22,855.59,2065,931.63c-38.42,20-74.94,34.54-109.63,36.88-204.79,13.85-260.31-10.16-470.24-84.18C1403.75,855.64,1338,827.59,1161,947.66c-245.62,166.9-438,213.69-539,213.16C467.74,1160,486.61,982.53,481.3,795.08c-5.21-183.88-31-370-245.47-403.14C80.65,368,16.62,486.09-39.54,604.52-81.38,692.78-118.32,778.43-185,799c-80.34,24.81-271.8-105.54-443-221.68"/><path class="cls-30" d="M3572.33,659c-99.42,177.16-242.67,395-386.49,389-60.68-2.61-108.21-44.57-149.94-103.54-112.35-158.78-178.15-438.88-315-438.09-56.35.28-115.84,29.59-178.19,71.9-156.65,106.3-316.85,292-463.17,370.34-38.57,20.61-75.66,34.19-111,35.42C1757,991.36,1698.27,963.92,1482,876.27c-84.09-34.08-150.44-69.34-330.62,54.52C901,1103,708.06,1156.51,610.6,1159.28c-156.14,4.45-132.8-179.14-133.22-370.82C477,602.13,455.5,412,235.51,382.63c-157-20.95-220,106.51-274.9,229.62-40.62,92.07-76.5,180.29-142.7,199.51C-261.89,834.92-457,694.48-630.61,565.91"/><path class="cls-4" d="M3573.5,645.44c-96.19,190-238.6,419.31-382.61,414.19-221.92-7.89-268.64-566.2-455.67-566.15-231.8.06-524.61,505.25-753.43,506-218.2.73-280.48-30.17-502.81-131.28-87-39.54-153.75-82-337.17,45.69-255.2,177.6-448.54,237.84-542.59,243.84-310.12,19.77,95.42-732.51-364-784.43C-42.58,341.93-25.56,782.76-179.21,824.5c-79.24,21.53-278-129-454-270"/></g></g></svg>