<svg xmlns="http://www.w3.org/2000/svg" xmlns:xlink="http://www.w3.org/1999/xlink" viewBox="0 0 6789.9 3000"><defs><style>.cls-1{fill:none;}.cls-2{isolation:isolate;}.cls-3{clip-path:url(#clip-path);}.cls-4{fill:url(#linear-gradient);}.cls-5{opacity:0.06;}.cls-6{opacity:0;}.cls-7{opacity:0.06;}.cls-8{opacity:0.13;}.cls-9{opacity:0.19;}.cls-10{opacity:0.25;}.cls-11{opacity:0.31;}.cls-12{opacity:0.38;}.cls-13{opacity:0.44;}.cls-14{opacity:0.5;}.cls-15{opacity:0.56;}.cls-16{opacity:0.63;}.cls-17{opacity:0.69;}.cls-18{opacity:0.75;}.cls-19{opacity:0.81;}.cls-20{opacity:0.88;}.cls-21{opacity:0.94;}.cls-22{fill:url(#linear-gradient-2);}.cls-23{fill:url(#linear-gradient-3);}.cls-24,.cls-27{mix-blend-mode:overlay;}.cls-24{opacity:0.3;}.cls-25{fill:url(#linear-gradient-4);}.cls-26{fill:url(#linear-gradient-5);}.cls-27{opacity:0.62;}.cls-28{fill:url(#linear-gradient-6);}.cls-29{fill:url(#linear-gradient-7);}.cls-30{fill:url(#linear-gradient-8);}.cls-31{fill:url(#linear-gradient-9);}</style><clipPath id="clip-path"><rect class="cls-1" width="6789.9" height="3000"/></clipPath><linearGradient id="linear-gradient" x1="974.13" y1="2898.95" x2="5926.7" y2="36.95" gradientUnits="userSpaceOnUse"><stop offset="0.2" stop-color="#f1f2f2"/><stop offset="0.46" stop-color="#eaecec"/><stop offset="0.83" stop-color="#d8dada"/><stop offset="1" stop-color="#cdcfd0"/></linearGradient><linearGradient id="linear-gradient-2" x1="-8601.01" y1="-10610.11" x2="-7460.67" y2="-2737.08" gradientTransform="matrix(0.48, -0.88, -0.88, -0.48, 598.74, -7417.49)" gradientUnits="userSpaceOnUse"><stop offset="0" stop-color="#cdcfd0"/><stop offset="0.69" stop-color="#f1f2f2"/></linearGradient><linearGradient id="linear-gradient-3" x1="-1541.18" y1="3562.11" x2="6492.81" y2="3562.11" gradientUnits="userSpaceOnUse"><stop offset="0" stop-color="#663500"/><stop offset="0.33" stop-color="#b28a4c"/><stop offset="0.48" stop-color="#d0ad6a"/><stop offset="0.58" stop-color="#d2b06f"/><stop offset="0.69" stop-color="#d9b97c"/><stop offset="0.81" stop-color="#e3c893"/><stop offset="0.93" stop-color="#f2deb2"/><stop offset="1" stop-color="#fdedc9"/></linearGradient><linearGradient id="linear-gradient-4" x1="-9075.44" y1="-7549.9" x2="-7935.09" y2="323.19" gradientTransform="matrix(0.96, -0.28, -0.28, -0.96, 8237.9, -2810.61)" gradientUnits="userSpaceOnUse"><stop offset="0.2" stop-color="#f1f2f2"/><stop offset="1" stop-color="#cdcfd0"/></linearGradient><linearGradient id="linear-gradient-5" x1="-1439.85" y1="3157.98" x2="3579.99" y2="3157.98" xlink:href="#linear-gradient-3"/><linearGradient id="linear-gradient-6" x1="-7799.91" y1="-11718.24" x2="-6659.59" y2="-3845.39" gradientTransform="matrix(0.65, -0.76, -0.76, -0.65, 982.52, -7022.38)" xlink:href="#linear-gradient-4"/><linearGradient id="linear-gradient-7" x1="-1726.76" y1="4126.71" x2="5947.27" y2="4126.71" xlink:href="#linear-gradient-3"/><linearGradient id="linear-gradient-8" x1="-8889.02" y1="-8819.37" x2="-7748.69" y2="-946.48" gradientTransform="matrix(1, -0.08, -0.08, -1, 8229.87, -2259.93)" gradientUnits="userSpaceOnUse"><stop offset="0" stop-color="#cdcfd0"/><stop offset="0.8" stop-color="#f1f2f2"/></linearGradient><linearGradient id="linear-gradient-9" x1="-1474.98" y1="3186.28" x2="2144.73" y2="3186.28" xlink:href="#linear-gradient-3"/></defs><g class="cls-2"><g id="Layer_1" data-name="Layer 1"><g class="cls-3"><rect class="cls-4" width="6789.9" height="3000"/><g class="cls-5"><path class="cls-6" d="M609.65,1748.8c494.72,270.6,1065.22,332.34,1606.38,173.85l885.82-259.41c534.93-156.66,1098.85-95.63,1587.88,171.85L6646.85,2905.55,5198.09,5554.31l-6563.51-3590,545.56-997.42Z"/><path class="cls-7" d="M599.34,1767.65C1094.07,2038.24,1664.56,2100,2205.72,1941.5l885.82-259.42c534.94-156.66,1098.86-95.63,1587.89,171.85L6636.55,2924.4,5187.78,5573.16l-6563.5-3590,545.55-997.43Z"/><path class="cls-8" d="M589,1786.49c494.72,270.59,1065.22,332.34,1606.38,173.85l885.82-259.42c534.93-156.65,1098.85-95.62,1587.88,171.85L6626.24,2943.24,5177.47,5592-1386,2002l545.55-997.42Z"/><path class="cls-9" d="M578.73,1805.33c494.72,270.6,1065.22,332.34,1606.38,173.85l885.82-259.41c534.93-156.66,1098.86-95.63,1587.88,171.85L6615.93,2962.08,5167.17,5610.84l-6563.51-3590,545.56-997.42Z"/><path class="cls-10" d="M568.42,1824.18c494.73,270.59,1065.22,332.33,1606.39,173.85l885.81-259.42C3595.56,1582,4159.48,1643,4648.51,1910.46L6605.63,2980.92,5156.86,5629.69l-6563.5-3590,545.55-997.43Z"/><path class="cls-11" d="M558.12,1843c494.72,270.59,1065.22,332.34,1606.38,173.85l885.82-259.42c534.93-156.66,1098.85-95.63,1587.88,171.85L6595.32,2999.77,5146.55,5648.53l-6563.5-3590,545.55-997.43Z"/><path class="cls-12" d="M547.81,1861.86c494.72,270.6,1065.22,332.34,1606.38,173.85L3040,1776.29c534.93-156.65,1098.86-95.62,1587.88,171.86L6585,3018.61,5136.25,5667.37l-6563.5-3590L-881.7,1080Z"/><path class="cls-13" d="M537.5,1880.71C1032.23,2151.3,1602.72,2213,2143.89,2054.56l885.81-259.42c534.94-156.66,1098.86-95.63,1587.89,171.85L6574.71,3037.45,5125.94,5686.22l-6563.5-3590L-892,1098.82Z"/><path class="cls-14" d="M527.2,1899.55c494.72,270.59,1065.22,332.34,1606.38,173.85L3019.4,1814c534.93-156.66,1098.85-95.63,1587.88,171.85L6564.4,3056.3,5115.64,5705.06l-6563.51-3590,545.55-997.43Z"/><path class="cls-15" d="M516.89,1918.39c494.72,270.6,1065.22,332.34,1606.38,173.85l885.82-259.42C3544,1676.17,4108,1737.2,4597,2004.68L6554.09,3075.14,5105.33,5723.9l-6563.5-3590,545.55-997.42Z"/><path class="cls-16" d="M506.58,1937.24C1001.31,2207.83,1571.8,2269.57,2113,2111.08l885.81-259.41C3533.72,1695,4097.64,1756,4586.67,2023.52L6543.79,3094,5095,5742.75l-6563.5-3590,545.55-997.43Z"/><path class="cls-17" d="M496.28,1956.08C991,2226.67,1561.5,2288.42,2102.66,2129.93l885.82-259.42c534.93-156.66,1098.85-95.63,1587.88,171.85L6533.48,3112.83,5084.72,5761.59l-6563.51-3590,545.56-997.43Z"/><path class="cls-18" d="M486,1974.92c494.73,270.6,1065.22,332.34,1606.38,173.85l885.82-259.42C3513.11,1732.7,4077,1793.73,4566.06,2061.2L6523.18,3131.67,5074.41,5780.43l-6563.5-3590L-943.54,1193Z"/><path class="cls-19" d="M475.67,1993.76c494.72,270.6,1065.22,332.34,1606.38,173.85l885.82-259.41c534.93-156.66,1098.85-95.63,1587.88,171.85L6512.87,3150.51,5064.1,5799.27l-6563.5-3590,545.55-997.43Z"/><path class="cls-20" d="M465.36,2012.61C960.08,2283.2,1530.58,2345,2071.74,2186.46L2957.56,1927c534.93-156.66,1098.86-95.63,1587.88,171.85L6502.56,3169.35,5053.8,5818.12l-6563.51-3590,545.56-997.43Z"/><path class="cls-21" d="M455.05,2031.45C949.78,2302,1520.27,2363.79,2061.44,2205.3l885.81-259.42c534.94-156.65,1098.86-95.62,1587.89,171.85L6492.26,3188.2,5043.49,5837-1520,2247l545.55-997.42Z"/><path d="M444.75,2050.29c494.72,270.6,1065.22,332.34,1606.38,173.85L2937,1964.72c534.93-156.65,1098.85-95.62,1587.88,171.86L6482,3207,5033.18,5855.8l-6563.5-3590,545.55-997.43Z"/></g><path class="cls-22" d="M444.75,2050.29c494.72,270.6,1065.22,332.34,1606.38,173.85L2937,1964.72c534.93-156.65,1098.85-95.62,1587.88,171.86L6482,3207,5033.18,5855.8l-6563.5-3590,545.55-997.43Z"/><path class="cls-23" d="M5036.36,5866.66-1541.18,2269l553.23-1011.46,7,3.84L448.59,2043.28c313.8,171.64,658.29,258.94,1006.27,258.94,198.55,0,398.17-28.4,594-85.75l885.82-259.42c537-157.26,1103.07-96,1594,172.51l1964.14,1074.3-3.84,7Zm-6555.82-3604L5030,5845,6471.09,3210.22,4521,2143.6c-310.18-169.66-650.69-256-994.65-256-196.25,0-393.56,28.07-587.15,84.76l-885.81,259.42c-543.22,159.09-1115.87,97.12-1612.47-174.51l-1422.5-778Z"/><g class="cls-24"><path class="cls-6" d="M448.85,875.54c158.49,541.16,518.23,988.22,1013,1258.82l809.8,442.93c489,267.48,844.63,709.39,1001.29,1244.32l627,2140.82L1002.47,6811-1100.14-368.63-9.09-688.15Z"/><path class="cls-7" d="M428.24,881.58c158.49,541.16,518.23,988.22,1013,1258.81L2251,2583.32c489,267.49,844.63,709.39,1001.29,1244.33l626.95,2140.82L981.86,6817-1120.75-362.59-29.7-682.12Z"/><path class="cls-8" d="M407.63,887.61c158.48,541.17,518.23,988.23,1013,1258.82l809.81,442.93c489,267.48,844.62,709.39,1001.28,1244.32l627,2140.83L961.24,6823-1141.36-356.56-50.31-676.08Z"/><path class="cls-9" d="M387,893.65c158.48,541.16,518.22,988.22,1013,1258.81l809.81,442.94c489,267.48,844.62,709.39,1001.28,1244.32l627,2140.82L940.63,6829.07-1162-350.52-70.92-670Z"/><path class="cls-10" d="M366.41,899.69c158.48,541.16,518.22,988.22,1012.95,1258.81l809.8,442.93c489,267.48,844.63,709.39,1001.29,1244.32l627,2140.83L920,6835.1-1182.59-344.48-91.54-664Z"/><path class="cls-11" d="M345.79,905.72C504.28,1446.89,864,1894,1358.75,2164.54l809.8,442.93c489,267.48,844.63,709.39,1001.29,1244.32l627,2140.83L899.41,6841.14-1203.2-338.45-112.15-658Z"/><path class="cls-12" d="M325.18,911.76c158.49,541.16,518.23,988.22,1013,1258.81l809.8,442.94C2637,2881,2992.57,3322.9,3149.23,3857.83l627,2140.82L878.8,6847.18-1223.81-332.41-132.76-651.93Z"/><path class="cls-13" d="M304.57,917.8C463.05,1459,822.8,1906,1317.52,2176.61l809.81,442.93c489,267.48,844.63,709.39,1001.28,1244.32l627,2140.83L858.18,6853.21-1244.42-326.38-153.37-645.9Z"/><path class="cls-14" d="M284,923.83c158.48,541.16,518.22,988.23,1013,1258.82l809.81,442.93C2595.74,2893.06,2951.34,3335,3108,3869.9l627,2140.82L837.57,6859.25-1265-320.34-174-639.86Z"/><path class="cls-15" d="M263.35,929.87c158.48,541.16,518.22,988.22,1013,1258.81l809.81,442.93c489,267.49,844.62,709.39,1001.28,1244.33l627,2140.82L817,6865.29-1285.64-314.3-194.59-633.83Z"/><path class="cls-16" d="M242.74,935.91c158.48,541.16,518.22,988.22,1013,1258.81l809.8,442.93c489,267.48,844.63,709.39,1001.29,1244.32l627,2140.83L796.35,6871.32-1306.26-308.27-215.21-627.79Z"/><path class="cls-17" d="M222.12,941.94c158.49,541.16,518.23,988.22,1013,1258.82l809.8,442.93c489,267.48,844.63,709.39,1001.29,1244.32l627,2140.82L775.74,6877.36-1326.87-302.23-235.82-621.75Z"/><path class="cls-18" d="M201.51,948c158.49,541.16,518.23,988.22,1013,1258.81l809.8,442.93c489,267.49,844.63,709.39,1001.29,1244.32l627,2140.83L755.13,6883.4-1347.48-296.19-256.43-615.72Z"/><path class="cls-19" d="M180.9,954c158.48,541.17,518.23,988.23,1013,1258.82l809.81,442.93c489,267.48,844.62,709.39,1001.28,1244.32l627,2140.83L734.51,6889.43-1368.09-290.16-277-609.68Z"/><path class="cls-20" d="M160.29,960.05c158.48,541.16,518.22,988.22,1013,1258.81l809.81,442.94c489,267.48,844.62,709.39,1001.28,1244.32l627,2140.82L713.9,6895.47-1388.7-284.12-297.65-603.64Z"/><path class="cls-21" d="M139.68,966.09c158.48,541.16,518.22,988.22,1013,1258.81l809.8,442.93c489,267.48,844.63,709.39,1001.29,1244.32l627,2140.83L693.29,6901.5-1409.32-278.08-318.27-597.61Z"/><path d="M119.06,972.12c158.49,541.16,518.23,988.23,1013,1258.82l809.8,442.93c489,267.48,844.63,709.39,1001.29,1244.32l627,2140.82L672.68,6907.54-1429.93-272-338.88-591.57Z"/></g><path class="cls-25" d="M119.06,972.12c158.49,541.16,518.23,988.23,1013,1258.82l809.8,442.93c489,267.48,844.63,709.39,1001.29,1244.32l627,2140.82L672.68,6907.54-1429.93-272-338.88-591.57Z"/><path class="cls-26" d="M667.25,6917.47l-2.25-7.68L-1437.61-269.8l-2.24-7.68,7.67-2.24L-333.45-601.5,126.74,969.88C284.63,1509,643,1954.35,1135.86,2223.92l809.8,442.93c490.91,268.51,847.87,712.11,1005.13,1249.09L3580,6064.44l-7.67,2.25L674.93,6915.22ZM-1420-266.62,678.11,6897.61l2882-844L2935.43,3920.44c-156.06-532.88-510.29-973.09-997.45-1239.55L1128.18,2238C631.58,1966.34,270.47,1517.59,111.39,974.37l-455.7-1556Z"/><g class="cls-27"><path class="cls-6" d="M485,2062.85c429.08,365.88,975,542.77,1537.08,498.07l920.12-73.15c555.65-44.17,1095.24,130.68,1519.38,492.34L6159,4427.51,4200.06,6724.8-1492.52,1870.72l737.66-865.07Z"/><path class="cls-7" d="M471,2079.2C900.1,2445.07,1446,2622,2008.11,2577.27l920.12-73.16c555.64-44.17,1095.24,130.68,1519.37,492.34L6145,4443.85,4186.12,6741.14-1506.45,1887.07-768.8,1022Z"/><path class="cls-8" d="M457.09,2095.54c429.08,365.87,975,542.76,1537.08,498.07l920.12-73.15c555.65-44.18,1095.24,130.67,1519.38,492.34L6131.09,4460.2,4172.18,6757.48-1520.39,1903.41l737.65-865.08Z"/><path class="cls-9" d="M443.16,2111.88c429.07,365.88,975,542.77,1537.08,498.07l920.12-73.15c555.64-44.17,1095.24,130.68,1519.37,492.34l1697.43,1447.4L4158.25,6773.83-1534.32,1919.75l737.65-865.07Z"/><path class="cls-10" d="M429.22,2128.22c429.08,365.88,975,542.77,1537.08,498.07l920.12-73.15c555.65-44.17,1095.24,130.68,1519.38,492.34l1697.42,1447.4L4144.31,6790.17-1548.26,1936.09-810.61,1071Z"/><path class="cls-11" d="M415.29,2144.57c429.07,365.87,975,542.76,1537.07,498.07l920.12-73.15c555.65-44.18,1095.24,130.67,1519.38,492.33l1697.43,1447.4L4130.38,6806.51-1562.19,1952.44l737.65-865.08Z"/><path class="cls-12" d="M401.35,2160.91c429.08,365.87,975,542.76,1537.08,498.07l920.12-73.15c555.65-44.17,1095.24,130.67,1519.38,492.34l1697.42,1447.4L4116.44,6822.86-1576.13,1968.78l737.65-865.08Z"/><path class="cls-13" d="M387.41,2177.25c429.08,365.88,975,542.77,1537.08,498.07l920.12-73.15C3400.26,2558,3939.85,2732.85,4364,3094.51l1697.42,1447.4L4102.51,6839.2-1590.06,1985.12l737.65-865.07Z"/><path class="cls-14" d="M373.48,2193.59c429.08,365.88,975,542.77,1537.08,498.07l920.12-73.15c555.65-44.17,1095.24,130.68,1519.38,492.34l1697.42,1447.4L4088.57,6855.54-1604,2001.46l737.65-865.07Z"/><path class="cls-15" d="M359.54,2209.94c429.08,365.87,975,542.76,1537.08,498.07l920.12-73.15c555.65-44.18,1095.24,130.67,1519.38,492.33l1697.42,1447.4L4074.64,6871.88-1617.94,2017.81l737.66-865.08Z"/><path class="cls-16" d="M345.61,2226.28c429.07,365.88,975,542.76,1537.08,498.07l920.12-73.15c555.64-44.17,1095.24,130.67,1519.38,492.34l1697.42,1447.4L4060.7,6888.23-1631.87,2034.15l737.65-865.08Z"/><path class="cls-17" d="M331.67,2242.62c429.08,365.88,975,542.77,1537.08,498.07l920.12-73.15c555.65-44.17,1095.24,130.68,1519.38,492.34l1697.42,1447.4L4046.77,6904.57-1645.81,2050.49l737.66-865.07Z"/><path class="cls-18" d="M317.74,2259c429.07,365.87,975,542.76,1537.08,498.06l920.12-73.15c555.64-44.17,1095.24,130.68,1519.37,492.34l1697.43,1447.4L4032.83,6920.91-1659.74,2066.84l737.65-865.08Z"/><path class="cls-19" d="M303.8,2275.31c429.08,365.87,975,542.76,1537.08,498.07L2761,2700.23c555.65-44.18,1095.24,130.67,1519.38,492.34L5977.8,4640,4018.89,6937.26-1673.68,2083.18-936,1218.1Z"/><path class="cls-20" d="M289.87,2291.65c429.07,365.88,975,542.77,1537.08,498.07l920.11-73.15c555.65-44.17,1095.25,130.67,1519.38,492.34l1697.43,1447.4L4005,6953.6-1687.61,2099.52-950,1234.45Z"/><path class="cls-21" d="M275.93,2308c429.08,365.88,975,542.77,1537.08,498.07l920.12-73.15c555.65-44.17,1095.24,130.68,1519.38,492.34l1697.42,1447.4L3991,6969.94-1701.55,2115.86l737.65-865.07Z"/><path d="M262,2324.34c429.08,365.87,975,542.76,1537.08,498.07l920.12-73.16c555.65-44.17,1095.24,130.68,1519.38,492.34L5936,4689,3977.09,6986.28-1715.48,2132.21l737.65-865.08Z"/></g><path class="cls-28" d="M262,2324.34c429.08,365.87,975,542.76,1537.08,498.07l920.12-73.16c555.65-44.17,1095.24,130.68,1519.38,492.34L5936,4689,3977.09,6986.28-1715.48,2132.21l737.65-865.08Z"/><path class="cls-29" d="M3978,6997.56l-6.08-5.19L-1720.68,2138.29l-6.08-5.19,5.19-6.08,742.84-871.17,6.09,5.19L267.19,2318.25c384,327.45,862,502.95,1361.15,502.95q84.71,0,170.1-6.77l920.12-73.15q85-6.75,169.41-6.74c497.26,0,973.27,174.79,1355.79,501l1697.43,1447.4,6.08,5.19-5.19,6.08ZM-1704.21,2131.31,3976.19,6975,5924.72,4689.89,4233.38,3247.68c-422.51-360.27-960-534.47-1513.55-490.45l-920.12,73.15q-86,6.84-171.4,6.82c-503,0-984.54-176.81-1371.51-506.78l-1233.74-1052Z"/><g class="cls-27"><path class="cls-6" d="M138.62,1009.44c44.69,562.12,305.61,1073.19,734.69,1439.07l702.35,598.9c424.14,361.66,682.05,866.85,726.23,1422.5l176.79,2223.72L-530.9,6932.9-1123.81-524.7,9.49-614.81Z"/><path class="cls-7" d="M117.21,1011.14c44.69,562.12,305.61,1073.2,734.69,1439.07l702.35,598.9c424.14,361.67,682.05,866.85,726.23,1422.5l176.79,2223.72L-552.31,6934.61-1145.22-523l1133.3-90.1Z"/><path class="cls-8" d="M95.8,1012.85C140.49,1575,401.41,2086,830.49,2451.91l702.35,598.9c424.14,361.67,682.05,866.85,726.23,1422.5L2435.86,6697-573.72,6936.31-1166.63-521.3l1133.3-90.1Z"/><path class="cls-9" d="M74.39,1014.55C119.08,1576.66,380,2087.74,809.08,2453.62l702.35,598.89c424.14,361.67,682.05,866.86,726.23,1422.5l176.79,2223.73L-595.13,6938-1188-519.6l1133.3-90.1Z"/><path class="cls-10" d="M53,1016.25c44.69,562.12,305.61,1073.19,734.69,1439.07L1490,3054.21c424.14,361.67,682.05,866.86,726.23,1422.5L2393,6700.44-616.54,6939.71-1209.45-517.9-76.15-608Z"/><path class="cls-11" d="M31.57,1018C76.26,1580.07,337.18,2091.15,766.26,2457l702.35,598.9c424.14,361.66,682.05,866.85,726.23,1422.5l176.79,2223.72L-637.95,6941.41l-592.91-7457.6,1133.3-90.1Z"/><path class="cls-12" d="M10.16,1019.65c44.69,562.12,305.61,1073.2,734.69,1439.07l702.35,598.9c424.14,361.67,682.05,866.85,726.23,1422.5l176.79,2223.72L-659.36,6943.12-1252.27-514.49-119-604.59Z"/><path class="cls-13" d="M-11.25,1021.36c44.69,562.11,305.61,1073.19,734.69,1439.06l702.35,598.9C1849.93,3421,2107.84,3926.18,2152,4481.82l176.79,2223.73L-680.77,6944.82-1273.68-512.79l1133.3-90.1Z"/><path class="cls-14" d="M-32.66,1023.06C12,1585.18,273,2096.25,702,2462.13L1404.38,3061c424.14,361.67,682,866.86,726.23,1422.5L2307.4,6707.25-702.18,6946.52-1295.09-511.09l1133.3-90.1Z"/><path class="cls-15" d="M-54.07,1024.76C-9.38,1586.88,251.54,2098,680.62,2463.83L1383,3062.73c424.14,361.66,682.05,866.85,726.23,1422.5L2286,6709-723.59,6948.22-1316.5-509.38l1133.3-90.11Z"/><path class="cls-16" d="M-75.48,1026.46c44.69,562.12,305.61,1073.2,734.69,1439.07l702.35,598.9c424.14,361.67,682.05,866.85,726.23,1422.5l176.79,2223.72L-745,6949.92l-592.91-7457.6,1133.3-90.1Z"/><path class="cls-17" d="M-96.89,1028.16c44.69,562.12,305.61,1073.2,734.69,1439.07l702.35,598.9c424.14,361.67,682.05,866.85,726.23,1422.5l176.79,2223.72L-766.41,6951.63-1359.32-506-226-596.08Z"/><path class="cls-18" d="M-118.3,1029.87C-73.61,1592,187.31,2103.06,616.39,2468.94l702.35,598.89c424.14,361.67,682.05,866.86,726.23,1422.5l176.79,2223.73L-787.82,6953.33-1380.73-504.28l1133.3-90.1Z"/><path class="cls-19" d="M-139.71,1031.57C-95,1593.69,165.9,2104.76,595,2470.64l702.35,598.89c424.14,361.67,682.05,866.86,726.23,1422.5l176.79,2223.73L-809.23,6955-1402.14-502.58l1133.3-90.1Z"/><path class="cls-20" d="M-161.12,1033.27c44.69,562.12,305.61,1073.2,734.69,1439.07l702.35,598.9c424.14,361.66,682.05,866.85,726.23,1422.5l176.79,2223.72L-830.64,6956.73l-592.91-7457.6L-290.25-591Z"/><path class="cls-21" d="M-182.53,1035c44.69,562.12,305.61,1073.2,734.69,1439.07l702.35,598.9c424.14,361.67,682.05,866.85,726.23,1422.5l176.79,2223.72L-852,6958.44-1445-499.17l1133.3-90.1Z"/><path d="M-203.94,1036.68c44.69,562.11,305.61,1073.19,734.69,1439.06l702.35,598.9c424.14,361.67,682.05,866.85,726.23,1422.5l176.79,2223.73L-873.47,6960.14l-592.9-7457.61,1133.3-90.1Z"/></g><path class="cls-30" d="M-203.94,1036.68c44.69,562.11,305.61,1073.19,734.69,1439.06l702.35,598.9c424.14,361.67,682.05,866.85,726.23,1422.5l176.79,2223.73L-873.47,6960.14l-592.9-7457.61,1133.3-90.1Z"/><path class="cls-31" d="M-880.81,6968.75l-.63-8L-1475-504.81l1149.25-91.37.63,8L-196,1036c44.52,560,304.45,1069.13,731.9,1433.62l702.35,598.89c425.77,363.06,684.67,870.18,729,1428l177.43,2231.7-8,.63ZM-1457.76-490.13l591.64,7441.66,2993.63-238L1951.35,4497.77c-44-553.51-300.93-1056.76-723.44-1417l-702.35-598.9C94.85,2114.57-167,1601.56-211.91,1037.31L-340.41-579Z"/><rect class="cls-1" y="-1137.3" width="6852.15" height="4137.3"/></g></g></g></svg>